<svg width="40" height="40" viewBox="0 0 40 40" fill="none" xmlns="http://www.w3.org/2000/svg">
<rect width="40" height="40" rx="8" fill="#D7F6FF"/>
<path opacity="0.7" d="M17.6562 24H11.123V22.9395L15.2832 16.957H11.1113V15.4688H17.5684V16.5L13.4375 22.5176H17.6562V24ZM20.6797 24H18.8398V15.4688H20.6797V24ZM25.6191 21.0293H24.1074V24H22.2617V15.4688H25.6191C26.2949 15.4688 26.873 15.5918 27.3535 15.8379C27.8379 16.084 28.209 16.4219 28.4668 16.8516C28.7285 17.2773 28.8594 17.7637 28.8594 18.3105C28.8594 19.1387 28.5723 19.7988 27.998 20.291C27.4238 20.7832 26.6309 21.0293 25.6191 21.0293ZM25.6191 16.957H24.1074V19.5469H25.6191C26.1035 19.5469 26.4531 19.4336 26.668 19.207C26.8828 18.9766 26.9902 18.6816 26.9902 18.3223C26.9902 17.9668 26.8828 17.6504 26.668 17.373C26.4531 17.0957 26.1035 16.957 25.6191 16.957Z" fill="#222C2E"/>
</svg>
